<svg version="1.1" viewBox="0 0 240 240" xmlns="http://www.w3.org/2000/svg" fill-rule="evenodd" clip-rule="evenodd" stroke-linecap="round" stroke-linejoin="round" stroke-width="0" fill="#ffffff" stroke="#ffffff"><path fill="#DEF3FB" d="M34.303 204C13.083 182.355 0 152.705 0 120 0 53.726 53.726 0 120 0s120 53.726 120 120c0 32.705-13.084 62.355-34.303 84H34.303z"/><path fill="#FEDDB8" stroke="#555" stroke-width="2" d="M188 183h12l4 20h-12z"/><path fill="none" d="M190 189l10-2.5" stroke="#000" stroke-width="2" opacity=".15"/><path fill="#45BFEF" d="M167 153h9s26 0 26 31l-15 4-3-7v-4 26h-17v-50zm-16 0v50h-17v-26 4l-3 7-15-4c0-31 26-31 26-31h9z" stroke="#555" stroke-width="2"/><path fill="none" d="M167 165l5 4" stroke="#000" stroke-width="3" opacity=".15"/><path fill="#6ACBF2" d="M167 148h5l4 5-4 14-5-4v-15zm-16 0v15l-5 4-4-14 4-5h5z" stroke="#555" stroke-width="2"/><path fill="#000" fill-opacity=".15" d="M133 154h4l4 48h-8z"/><path fill="none" d="M151 165l-5 4" stroke="#000" stroke-width="3" opacity=".15"/><path stroke="#555" stroke-width="2" d="M151 153h16v50h-16z"/><path fill="#FEDDB8" d="M151 142v11s0 7 8 7 8-7 8-7v-11h-16z" stroke="#555" stroke-width="2"/><path fill="none" d="M152 145s7 2 14 0" stroke-opacity=".15" stroke="#000" stroke-width="3"/><path fill="#777" stroke="#555" stroke-width="2" d="M191 75v36h-4V75z"/><path fill="#FEDDB8" d="M131 116s0 28 28 28 28-28 28-28V80h-56v36z" stroke="#555" stroke-width="2"/><path fill="none" d="M159 105v8s-3 0-3 3 3 3 3 3h1" stroke="#555" stroke-width="2"/><path fill="none" d="M20 203h200" stroke="#555" stroke-width="2"/><path fill="#D9DEE2" d="M62 158.005A5 5 0 0 1 67.006 153h61.988a5.006 5.006 0 0 1 5.006 5.005V197H62v-38.995zM60 197h76c0 6-5.7 6-5.7 6H65.7s-5.7 0-5.7-6z" stroke="#555" stroke-width="2"/><circle stroke="#555" stroke-width="2" cx="98" cy="175" r="4"/><path d="M95.007 111c3.305 0 5.993-2.688 5.993-6.005V43H1v61.995A5.998 5.998 0 0 0 6.993 111H74l15 15v-15h6.007z" stroke="#555" stroke-width="2"/><rect stroke="#CFD6DD" stroke-width="2" x="21" y="81" width="16" height="16" rx="2"/><circle fill="#3EC197" cx="29" cy="89" r="3"/><rect stroke="#CFD6DD" stroke-width="2" x="43" y="81" width="16" height="16" rx="2"/><circle fill="#FF7575" cx="51" cy="89" r="3"/><rect stroke="#CFD6DD" stroke-width="2" x="65" y="81" width="16" height="16" rx="2"/><circle fill="#94A4B3" cx="73" cy="89" r="3"/><path fill="#ECEEF0" d="M1 38.5C1 36.015 3.02 34 5.491 34H96.51a4.5 4.5 0 0 1 4.491 4.5V43H1v-4.5z" stroke="#555" stroke-width="2"/><circle fill="#FF7575" cx="7.5" cy="38.5" r="1.5"/><circle fill="#FDC963" cx="12.5" cy="38.5" r="1.5"/><circle fill="#3EC197" cx="17.5" cy="38.5" r="1.5"/><path fill="#45BFEF" d="M2 44h98v8H2z"/><path fill="#CFD6DD" d="M21 64h60v2H21zm18 6h24v2H39z"/><path fill="none" d="M141 103s2-2 8-2m29 2s-2-2-8-2" stroke="#555" stroke-width="2"/><path fill="#555" d="M151 125h16s-.005 7-8.003 7C151 132 151 125 151 125z" stroke="#555" stroke-width="2"/><path d="M165.683 129c1.315-1.9 1.317-4 1.317-4h-16s0 2.1 1.314 4h13.369z" stroke="#555" stroke-width="2"/><rect fill="#555" x="171" y="107" width="4" height="6" rx="2"/><rect fill="#555" x="144" y="107" width="4" height="6" rx="2"/><path fill="none" d="M184.098 86.166C179.39 87.818 172.65 89 163 89c-10 0-16-4-20-4s-12 0-12 10" stroke="#000" stroke-width="4" opacity=".15"/><path fill="#6E7072" d="M131 111h-4V84s0-16 12-14c0 0 0-14 20-14 26 0 36 18.5 36 19s0 13-32 13c-10 0-16-4-20-4s-12 0-12 10v17z" stroke="#555" stroke-width="2"/><path fill="#FEDDB8" d="M131 104v14a7 7 0 0 1 0-14zm56 14v-14a7 7 0 0 1 0 14z" stroke="#555" stroke-width="2"/><path fill="none" d="M169 74s8 1 13-3m-20 9s10 2 18-2" stroke="#5F5F60" stroke-width="2"/></svg>